<svg xmlns="http://www.w3.org/2000/svg" xml:space="preserve" id="Layer_1" x="0" y="0" version="1.1" viewBox="0 0 158.8 119.5"><style>.fill{fill:#ffec70}</style><path d="m61.5 14 .8 1.6c.2.7.1 1.4-.1 2a115 115 0 0 0-14.1.7 491 491 0 0 0-10 1 25.7 25.7 0 0 0-5 5.7c-6.5 10-9.5 14-10.5 29.3 0 1 1.9.5 3 .1A39.3 39.3 0 0 0 38 44.8l.1 5.3c-1.6 2-3 3-4.6 4.3a35.5 35.5 0 0 1-4.5 3.1 13 13 0 0 1-6.8 2 8 8 0 0 1-3.4-.7c-.9-.4-1.4-.8-1.7-1.2a47.2 47.2 0 0 1 13.8-37.8h-2A104.3 104.3 0 0 0 10.6 23c-.6 0-1.3-.4-2-1a17.1 17.1 0 0 1-4-4.5c-.4-.7-.6-1-.5-1.2.2-.3 1-.5 2.2-.7a120 120 0 0 1 11.3-1 435.7 435.7 0 0 1 18.2-.7 20 20 0 0 1 5.4-4c1.7.1 3.3.4 4.8.8l4.5 1.3a62.8 62.8 0 0 0 11.1 2z" class="fill"/><path d="M55.4 48.1c.7-.4 2.3-1.3 4.8-5.2.2-.3 2 2.7 2 3-.7 1.3-6 6.5-7 7.3a7 7 0 0 1-3.3 1.4c-1.1.2-2.2 0-3.2-.4a5 5 0 0 1-2.4-2.3c-.5-1.1-.8-2.5-.8-4.2 0-1.7.6-3.8 1.5-6.2-.6.6-1.4 1.6-2.2 3-.8 1.3-1.6 3-2.4 5a64 64 0 0 0-3.6 16c-.2.2-.5.2-.9.1a8.2 8.2 0 0 1-2.6-1.1 2 2 0 0 1-.8-.9 160.9 160.9 0 0 1 11.7-45.2c2.2-5 4.5-9.6 7-13.9.2-.3.5-.5 1-.6.4-.1.9-.2 1.4-.1.5 0 1 0 1.4.2.4.2.7.4.8.7a223 223 0 0 0-8.4 17.7c-2.3 5.5-4.2 10.8-5.6 16l1.5-2a25.4 25.4 0 0 1 4-3.5c.7-.5 1.4-.8 2-1 .3-.1.8 0 1.3.2a5.8 5.8 0 0 1 2.3 2c.3.5.3.8 0 1a57.2 57.2 0 0 0-3 6.3 21 21 0 0 0-1.1 4.2c-.2 1.1-.2 2 0 2.4.3.6.7.9 1 1 .5.1 1 .2 1.6 0 .6-.2 1.2-.4 2-.9z" class="fill"/><path d="M75.1 31.9c1 .3 1.7 1.2 1.7 2.5A13 13 0 0 1 76 39a36.6 36.6 0 0 1-6.7 11.2c-1.5 1.6-3 3-4.7 4a7.1 7.1 0 0 1-4.5 1.3c-1.6-.1-2.5-.8-2.8-2a9 9 0 0 1 0-4.3 79.6 79.6 0 0 1 7.3-15.6l1.4-2.3c.1-.2.3-.3.7-.1.3 0 .7.3 1 .5l1 .9c.4.3.5.5.5.6v.4l.4.5c.7 0 1.2-.3 1.6-.8l1.2-1.5c.4-.3 1-.3 1.3-.2l1.4.2zm-13.6 20c.4 0 1-.4 1.9-1.2a54.3 54.3 0 0 0 7.9-10.4c.6-1.2 1-2.2 1.2-3 .2-1 0-1.5-.5-1.8a7.6 7.6 0 0 1-1.7 1.3l-1.1.5c-.4.2-.7.2-1 0L67.2 39a39.3 39.3 0 0 0-3.4 6 43 43 0 0 0-2.4 5.7c-.1.7-.1 1.1.2 1.3zM75.6 57.6a8 8 0 0 1-.3-2.7 54.6 54.6 0 0 1 1.2-10.3 146.3 146.3 0 0 1 2.4-10.5c.4-1.4.8-2.5 1.3-3.1.2-.2.7-.2 1.5 0 .8 0 1.3.4 1.5.8v.7l-.2.6-.2.4a24.6 24.6 0 0 1 2.5-2.1c.6-.1 1.2 0 1.7.2a4.3 4.3 0 0 1 2.2 1.9l.3 1c.2.5.3 1.2.1 1.9l-.5 2.2c.3-1 .9-1.9 1.8-2.5a8 8 0 0 1 5.5-1.3c.8.1 1.3.4 1.6.8-1 1-1.7 2.2-2.2 3.6a18.4 18.4 0 0 0-1.3 8.3c.1 1.3.4 2.3.8 3 .4.8 1 1.2 1.7 1.3 1.9.1 4.4-2.6 5.2-4.1l2 2.5c0 .4-3 3.5-3.6 4a7.5 7.5 0 0 1-4.8 1.1 5 5 0 0 1-2.6-1 7.2 7.2 0 0 1-2.2-2.7c-.6-1.2-1-3-1-5a48.5 48.5 0 0 0-1.6 4.2 65.3 65.3 0 0 1-1.4 3.9 2 2 0 0 1-1 0 6.4 6.4 0 0 1-2.1-.3c-.4-.2-.6-.4-.7-.6 0-.4 0-1.4.3-3a302.1 302.1 0 0 0 1-11.3c-.2 0-.5.5-1 1.6a38.6 38.6 0 0 0-3 10.3c-.5 2.2-.7 4.4-.7 6.6l-1 .3a4.8 4.8 0 0 1-2.4 0c-.4-.1-.6-.4-.8-.7z" class="fill"/><path d="M120.3 55.8c-1.2.9-2.4 1.3-3.6 1a4.6 4.6 0 0 1-3-2c-.8-1-1-2.4-.8-3.9-2.3 2-4.2 3.3-5.8 3.8-1.6.5-2.9.6-3.9.2a4 4 0 0 1-2.2-1.8c-.5-.8-.7-1.6-.8-2.2a19.4 19.4 0 0 1 3.1-12.4 17 17 0 0 1 3.6-3.8c1.3-1 2.6-1.8 3.9-2.2 1.3-.4 2.5-.5 3.6-.2 1 .2 2 .9 2.5 1.9a22.1 22.1 0 0 1 2.2-3.3l.9-.7c.6 0 1.2 0 1.7.3a4.5 4.5 0 0 1 2 1.7l.2.6a29.6 29.6 0 0 0-6.8 16.5c0 1.5 0 2.7.4 3.7 0 .3.3.6.8.6.6 0 1.4-.2 2.2-.5.7-.2 3.1-1.5 3.7-2.1 0 0-2.6 3.8-3.9 4.8zm-14.9-5.5c.2 0 .8 0 1.6-.4.9-.3 1.8-.9 2.8-1.7 1-.9 2-2 2.9-3.6.9-1.5 1.5-3.4 2-5.7.1-.7 0-1.2-.3-1.6-.4-.4-.9-.8-1.5-1a9.2 9.2 0 0 0-4.4 2.8 15.2 15.2 0 0 0-3.7 8.6c0 1.3.1 2.2.6 2.5z" class="fill"/><path d="m132.4 47.5.8 3a69.3 69.3 0 0 1 1.5 7.6c.2 1.3 0 2.3-.2 3.1-.6 1.8-1.5 3.2-2.5 4.3a11.2 11.2 0 0 1-7.1 3.8 20 20 0 0 1-3.7.2 13 13 0 0 1-3.1-.4 7 7 0 0 1-2-.8c-1.2-1.1-2-2.4-1.9-3.8a9 9 0 0 1 1.3-4.3c.8-1.4 2-2.9 3.3-4.3a62.2 62.2 0 0 1 8.6-7.6 41.5 41.5 0 0 1-2.1-7c-.2-1.3-.2-2.5 0-3.7a7 7 0 0 1 1.1-3.3c.7-1 1.6-1.7 2.9-2.3 1.2-.7 2.9-1 5-1 .5 0 1 0 1.6.4.6.3 1 .6 1.4 1l.9 1.2c.1.4 0 .7-.2 1-1.6 0-3 .1-4.2.5a5 5 0 0 0-2.8 1.7c-.6.8-1 1.9-.9 3.3 0 1.3.5 3 1.5 5l2-1.2a53.9 53.9 0 0 0 2.3-1.2c.6 0 1 .1 1.1.5.2.3.3.6.2.8l-.7.6a41.6 41.6 0 0 1-4.1 3zM127 65a8 8 0 0 0 2.4-4.4 21.7 21.7 0 0 0-1.2-10.4l-1.2 1a47.6 47.6 0 0 0-5.2 5.2 18 18 0 0 0-2.4 3.5c-.6 1.2-.9 2.4-1 3.5 0 1.1.4 2.1 1.3 3l.8.4c.4.2 1 .3 1.7.3a6.9 6.9 0 0 0 4.9-2zM73 69.6c.4.3.6.8.8 1.5.3.8.2 1.4 0 2a115 115 0 0 0-14.1.7 491 491 0 0 0-10 1 33.2 33.2 0 0 0-5 5.7 59.1 59.1 0 0 0-9 18.7 39 39 0 0 0-1.5 10.6c.9.4 1.9.5 3 .1 1.1-.3 2.3-.9 3.4-1.6a61.7 61.7 0 0 0 6-5l2 1.5a30.3 30.3 0 0 1-4.1 5.1 21.8 21.8 0 0 1-4 3.1 13 13 0 0 1-6.9 2 8 8 0 0 1-3.4-.7c-.8-.4-1.4-.8-1.6-1.2a47.2 47.2 0 0 1 13.8-37.8h-2a104.3 104.3 0 0 0-18.3 3.3c-.6 0-1.3-.4-2.1-1a17.1 17.1 0 0 1-4-4.5c-.4-.7-.5-1.2-.4-1.3.1-.2.9-.5 2.2-.6A120 120 0 0 1 29 70a435.7 435.7 0 0 1 18.2-.7 20 20 0 0 1 5.4-4c1.7.1 3.2.4 4.7.9l4.5 1.3a62.8 62.8 0 0 0 11.2 2z" class="fill"/><path d="M65.4 85.8c.6 0 1.2 0 1.7.2a4.5 4.5 0 0 1 2 1.7l.2.7a29.6 29.6 0 0 0-6.8 16.5c0 1.4.1 2.7.4 3.6 0 .3.3.3.7 0l1.5-1.5c.5-.6 5-7.1 5.3-9.7l2 2a31 31 0 0 1-6.7 12 4.4 4.4 0 0 1-3.6 1 4.6 4.6 0 0 1-3-1.9c-.8-1.1-1-2.4-.8-4-2.3 2-4.2 3.3-5.8 3.8-1.6.5-2.9.6-3.9.2a4 4 0 0 1-2.2-1.8c-.5-.8-.8-1.5-.8-2.2a19.4 19.4 0 0 1 3-12.3 17 17 0 0 1 3.6-3.9c1.4-1 2.7-1.7 4-2.2 1.3-.4 2.5-.4 3.6-.2 1 .3 2 1 2.5 2a22.1 22.1 0 0 1 2.2-3.4c.4-.4.7-.6 1-.6zm-14.6 20c.2 0 .8 0 1.6-.3s1.8-1 2.8-1.8c1-.9 2-2 2.9-3.6.9-1.5 1.5-3.4 2-5.7.1-.7 0-1.2-.3-1.6-.4-.4-.9-.7-1.5-1a9.2 9.2 0 0 0-4.4 2.9 15.2 15.2 0 0 0-3.7 8.5c0 1.3.1 2.2.6 2.6z" class="fill"/><path d="m87 96.4 2 1.2c-3.5 6.7-5.2 9-6.7 10.7a8.8 8.8 0 0 1-4.5 2.6 5 5 0 0 1-3.7-.5c-1.1-.7-2.1-2-2.9-3.8a16 16 0 0 1-1.3-7.4c0-2.7.5-5.6 1.4-8.6a56.5 56.5 0 0 1 7.6-16.7c1.5-2.4 3-4.3 4.4-5.8 1.5-1.5 2.7-2.4 3.7-2.6 1.4-.1 2.5.1 3.2.7.8.6 1.2 1.2 1.3 1.9a49.6 49.6 0 0 1-12.9 26 8.3 8.3 0 0 1-4.4 2 14.3 14.3 0 0 0-.2 5.2c.1 1 .3 2 .6 2.8.3 1 .7 1.7 1.3 2.2.5.4 1 .6 1.6.6.6 0 1.2-.2 1.8-.5a19 19 0 0 0 2.8-2.5c.5-.7 4-5.1 4.9-7.5zm-.3-27a72.6 72.6 0 0 0-12 21.8c1-.2 2-.9 3-2A50 50 0 0 0 85.2 76a56.8 56.8 0 0 0 2-5.9c0-.2-.2-.3-.4-.4l-.3-.1z" class="fill"/><path d="M93.5 90a13 13 0 0 1 5.7-2c1.4 0 2.3.5 2.9 1.4.6 1 .7 2.2.5 3.9-.1 1.6-.6 3.3-1.3 5.1a30.5 30.5 0 0 1-6.4 10 12 12 0 0 1-4.2 2.8c-1.5.5-2.8.4-4.2-.3-1-1-1.4-2.8-1.4-5.3s.3-5.4 1-8.6a79.9 79.9 0 0 1 12.1-27.4c1.7-2.1 3.3-3.5 5-4 .6-.3 1.3-.2 2 0a3 3 0 0 1 1.5 1.2c.3.5.3 1.2 0 2.4a56.5 56.5 0 0 1-10 18 16.6 16.6 0 0 1-3.2 2.9zm-4.3 16.3a15 15 0 0 0 4.4-3.2 20 20 0 0 0 3-4c.7-1.3 1.2-2.6 1.4-3.8.3-1.2.2-2-.2-2.5-.4-.6-1-.7-2.1-.3-1 .3-2.4 1.3-4.1 2.8l-.6 2a69.4 69.4 0 0 0-1.8 9zm15-37.6c-.4.1-1 .6-1.6 1.4l-2.2 3a76.7 76.7 0 0 0-6.7 13.2 81.3 81.3 0 0 0 10.4-17.6zM118.2 87.4c1 .4 1.6 1.2 1.7 2.5a13 13 0 0 1-.8 4.7 36.6 36.6 0 0 1-6.7 11.2c-1.5 1.7-3 3-4.7 4a7.1 7.1 0 0 1-4.6 1.4c-1.5-.2-2.4-.9-2.8-2a9 9 0 0 1 .1-4.4 79.6 79.6 0 0 1 7.3-15.6L109 87c.2-.3.4-.3.8-.2s.7.3 1 .6c.4.2.8.5 1 .8.4.3.5.5.5.6v.5l.4.4c.7 0 1.2-.2 1.5-.8l1.3-1.5c.4-.2.9-.3 1.3-.2.5.2 1 .2 1.4.2zm-13.7 20.1c.5 0 1.1-.5 2-1.2l2.7-3a54.3 54.3 0 0 0 5.1-7.5c.6-1.2 1-2.2 1.2-3 .2-1 0-1.5-.5-1.7a7.6 7.6 0 0 1-1.7 1.2c-.3.3-.7.4-1 .6h-1l-1.2 1.7a39.3 39.3 0 0 0-3.3 6 43 43 0 0 0-2.4 5.6c-.2.8-.1 1.2.1 1.3z" class="fill"/><path d="m146.5 79.1.5 1 .3 1.4v1.3c0 .5 0 .7-.2.7a62.8 62.8 0 0 1-14.8 4.5l-.6 1.4a51.3 51.3 0 0 0-2.5 8.4 72.6 72.6 0 0 0-2 10.7l.1 4.3c-.2.4-.6.7-1 .8a5 5 0 0 1-3.1 0c-.6-.2-1-.4-1.5-.8v-2.4a335.5 335.5 0 0 1 1-8.8c.1-1.5.4-2.7.6-3.6-.4-2.9-1-5.4-2.1-7.5-1-2.2-2.4-3.8-4-4.7-.2 0-.2-.2-.2-.3 0-.2.2-.4.3-.5l.6-.5h.7l1.8.6a25.3 25.3 0 0 0 8 0l1.5-3.4a158.3 158.3 0 0 1 15.4-25c1.4-1.6 2.7-2.8 3.9-3.5l.7-.1c.4 0 .7 0 1.1.2l1.2.6c.4.3.6.7.8 1.1a94.3 94.3 0 0 0-18.7 28.7l2-.5a43 43 0 0 0 10.2-4zm-20.7 12.1s0-.4.3-1l.7-1.8c-.7 0-1.3 0-2-.2l-1-.2c.5.5.9 1 1.1 1.6.2.6.5 1.1.9 1.6z" class="fill"/></svg>